<?xml version="1.0" encoding="UTF-8" standalone="no"?>
<svg xmlns="http://www.w3.org/2000/svg"
   xmlns:xlink="http://www.w3.org/1999/xlink"
   xmlns:dc="http://purl.org/dc/elements/1.1/"
   xmlns:cc="http://creativecommons.org/ns#"
   xmlns:rdf="http://www.w3.org/1999/02/22-rdf-syntax-ns#"
   width="427" height="253">
  <metadata>
    <rdf:RDF>
      <cc:Work rdf:about="">
        <dc:format>image/svg+xml</dc:format>
        <dc:type rdf:resource="http://purl.org/dc/dcmitype/StillImage"/>
      </cc:Work>
    </rdf:RDF>
  </metadata>
<defs><path id="O" d="M113.112,96.5534V156.209
C113.112,169.316,118.01,173.741,125.357,173.741
H135.932
C147.843,173.741,150.821,169.682,150.821,156.209
V97.7686
C150.821,85.874,148.541,79.6797,136.906,79.6797
H126.887
C123.548,79.6797,120.951,80.1895,119.096,81.21
C113.288,84.5732,113.112,90.9551,113.112,96.5534Z
M129.114,97.0732
C129.114,93.4971,130.227,92.3418,131.897,92.3418
C133.65,92.3418,134.819,93.3438,134.819,97.3516
V156.209
C134.818,159.544,134.169,160.661,131.897,160.661
C130.201,160.661,129.114,160.307,129.114,156.487Z"/></defs>
  <rect width="427" height="253"/>
  <g fill="#ff0000">
<path d="M63.2478,80.0974V172.906H77.1619V129.076
L86.4844,172.906H102.068V80.0974H88.1541V124.902
L78.8315,80.0974Z"/><use xlink:href="#O"/></g>
  <rect fill="#ffffff" x="164.932" y="63.2498" width="198.821" height="126.503"/>
<use x="101.259" xlink:href="#O"/>
<path d="M179.042,80.0974V172.906H205.062V159.826
H195.461V80.0974Z
M263.157,99.0215V156.487
C263.157,168.147,265.658,173.324,277.767,173.324
C284.446,173.324,288.992,171.191,291.403,166.923
L294.882,172.906H300.865V125.597H281.523V137.703
H284.863V154.818
C284.863,159.555,283.678,160.244,281.941,160.244
C280.271,160.244,279.158,159.409,279.158,156.07
V96.2385
C279.158,94.2363,280.254,92.8984,281.802,92.8984
C284.276,92.8984,284.863,94.5088,284.863,97.0732
V111.961H300.865V100.551
C300.865,85.1875,297.792,79.6797,285.42,79.6797
H279.437
C264.129,79.6797,263.157,85.959,263.157,99.0215Z"/>
<use x="198.824" xlink:href="#O"/></svg>
